ffmpeg started on 2026-01-05 at 18:20:33
Report written to "D:\Convert\FFMetrics\reports\ssim_report-6.txt"
Log level: 32
Command line:
ffmpeg -hide_banner -nostdin -r 24000/1001 -i "F:\\Convert\\files\\[DC] Make Heroine ga Oosugiru - 07_Telegram_HEVC(56).mkv" -r 24000/1001 -i "F:\\Convert\\files\\[DC] Make Heroine ga Oosugiru - 07_Telegram.mp4" -lavfi "[0:v]settb=AVTB,setpts=PTS-STARTPTS,format=pix_fmts=yuv420p10le,fps=24000/1001,scale=1920:1080:flags=bicubic[main];[1:v]settb=AVTB,setpts=PTS-STARTPTS,format=pix_fmts=yuv420p,fps=24000/1001,scale=1920:1080:flags=bicubic[ref];[main][ref]ssim=eof_action=endall:stats_file='D\\:/Convert/FFMetrics/logs/ssim_logfile-6.txt'" -f null -
Input #0, matroska,webm, from 'F:\Convert\files\[DC] Make Heroine ga Oosugiru - 07_Telegram_HEVC(56).mkv':
  Metadata:
    COMPATIBLE_BRANDS: isomiso2avc1mp41
    MAJOR_BRAND     : isom
    MINOR_VERSION   : 512
    ENCODER         : Lavf61.7.100
  Duration: 00:24:06.79, start: -0.021000, bitrate: 981 kb/s
  Stream #0:0: Video: hevc (Main 10), yuv420p10le(tv, bt709, progressive), 1920x1080 [SAR 1:1 DAR 16:9], 23.98 fps, 23.98 tbr, 1k tbn (default)
      Metadata:
        HANDLER_NAME    : VideoHandler
        VENDOR_ID       : [0][0][0][0]
        ENCODER         : Lavc61.19.100 libx265
        BPS             : 784120
        DURATION        : 00:24:06.528708333
        NUMBER_OF_FRAMES: 34682
        NUMBER_OF_BYTES : 141781592
        _STATISTICS_WRITING_APP: mkvpropedit v94.0 ('Initiate') 64-bit
        _STATISTICS_WRITING_DATE_UTC: 2026-01-05 12:19:18
        _STATISTICS_TAGS: BPS DURATION NUMBER_OF_FRAMES NUMBER_OF_BYTES
  Stream #0:1: Audio: aac (LC), 48000 Hz, stereo, fltp (default)
      Metadata:
        HANDLER_NAME    : SoundHandler
        VENDOR_ID       : [0][0][0][0]
        ENCODER         : Lavc61.19.100 aac
        BPS             : 193194
        DURATION        : 00:24:06.784000000
        NUMBER_OF_FRAMES: 67819
        NUMBER_OF_BYTES : 34938755
        _STATISTICS_WRITING_APP: mkvpropedit v94.0 ('Initiate') 64-bit
        _STATISTICS_WRITING_DATE_UTC: 2026-01-05 12:19:18
        _STATISTICS_TAGS: BPS DURATION NUMBER_OF_FRAMES NUMBER_OF_BYTES
Input #1, mov,mp4,m4a,3gp,3g2,mj2, from 'F:\Convert\files\[DC] Make Heroine ga Oosugiru - 07_Telegram.mp4':
  Metadata:
    major_brand     : isom
    minor_version   : 512
    compatible_brands: isomiso2avc1mp41
    encoder         : Lavf60.16.100
  Duration: 00:24:06.74, start: 0.000000, bitrate: 3764 kb/s
  Stream #1:0[0x1](und): Video: h264 (High) (avc1 / 0x31637661), yuv420p(tv, bt709, progressive), 1920x1080 [SAR 1:1 DAR 16:9], 3616 kb/s, 23.98 fps, 23.98 tbr, 24k tbn (default)
      Metadata:
        handler_name    : VideoHandler
        vendor_id       : [0][0][0][0]
        encoder         : Lavc60.31.102 h264_qsv
  Stream #1:1[0x2](und): Audio: aac (HE-AACv2) (mp4a / 0x6134706D), 48000 Hz, stereo, fltp, 144 kb/s (default)
      Metadata:
        handler_name    : SoundHandler
        vendor_id       : [0][0][0][0]
Stream mapping:
  Stream #0:0 (hevc) -> settb:default
  Stream #1:0 (h264) -> settb:default
  ssim:default -> Stream #0:0 (wrapped_avframe)
  Stream #0:1 -> #0:1 (aac (native) -> pcm_s16le (native))
Output #0, null, to 'pipe:':
  Metadata:
    COMPATIBLE_BRANDS: isomiso2avc1mp41
    MAJOR_BRAND     : isom
    MINOR_VERSION   : 512
    encoder         : Lavf61.7.100
  Stream #0:0: Video: wrapped_avframe, yuv420p10le(tv, bt709, progressive), 1920x1080 [SAR 1:1 DAR 16:9], q=2-31, 200 kb/s, 23.98 fps, 23.98 tbn
      Metadata:
        encoder         : Lavc61.19.100 wrapped_avframe
  Stream #0:1: Audio: pcm_s16le, 48000 Hz, stereo, s16, 1536 kb/s (default)
      Metadata:
        HANDLER_NAME    : SoundHandler
        VENDOR_ID       : [0][0][0][0]
        _STATISTICS_TAGS: BPS DURATION NUMBER_OF_FRAMES NUMBER_OF_BYTES
        BPS             : 193194
        DURATION        : 00:24:06.784000000
        NUMBER_OF_FRAMES: 67819
        NUMBER_OF_BYTES : 34938755
        _STATISTICS_WRITING_APP: mkvpropedit v94.0 ('Initiate') 64-bit
        _STATISTICS_WRITING_DATE_UTC: 2026-01-05 12:19:18
        encoder         : Lavc61.19.100 pcm_s16le
frame=  177 fps=0.0 q=-0.0 size=N/A time=00:00:07.38 bitrate=N/A speed=14.3x    frame=  432 fps=421 q=-0.0 size=N/A time=00:00:18.01 bitrate=N/A speed=17.6x    frame=  718 fps=463 q=-0.0 size=N/A time=00:00:29.94 bitrate=N/A speed=19.3x    frame=  930 fps=451 q=-0.0 size=N/A time=00:00:38.78 bitrate=N/A speed=18.8x    frame= 1102 fps=427 q=-0.0 size=N/A time=00:00:45.96 bitrate=N/A speed=17.8x    frame= 1282 fps=414 q=-0.0 size=N/A time=00:00:53.47 bitrate=N/A speed=17.3x    frame= 1457 fps=404 q=-0.0 size=N/A time=00:01:00.76 bitrate=N/A speed=16.8x    frame= 1618 fps=393 q=-0.0 size=N/A time=00:01:07.48 bitrate=N/A speed=16.4x    frame= 1804 fps=388 q=-0.0 size=N/A time=00:01:15.24 bitrate=N/A speed=16.2x    frame= 1996 fps=387 q=-0.0 size=N/A time=00:01:23.24 bitrate=N/A speed=16.1x    frame= 2124 fps=374 q=-0.0 size=N/A time=00:01:28.58 bitrate=N/A speed=15.6x    frame= 2305 fps=371 q=-0.0 size=N/A time=00:01:36.13 bitrate=N/A speed=15.5x    frame= 2457 fps=366 q=-0.0 size=N/A time=00:01:42.47 bitrate=N/A speed=15.3x    frame= 2614 fps=361 q=-0.0 size=N/A time=00:01:49.02 bitrate=N/A speed=15.1x    frame= 2814 fps=363 q=-0.0 size=N/A time=00:01:57.36 bitrate=N/A speed=15.2x    frame= 3034 fps=367 q=-0.0 size=N/A time=00:02:06.54 bitrate=N/A speed=15.3x    frame= 3305 fps=377 q=-0.0 size=N/A time=00:02:17.84 bitrate=N/A speed=15.7x    frame= 3599 fps=387 q=-0.0 size=N/A time=00:02:30.10 bitrate=N/A speed=16.1x    frame= 3875 fps=395 q=-0.0 size=N/A time=00:02:41.61 bitrate=N/A speed=16.5x    frame= 4153 fps=402 q=-0.0 size=N/A time=00:02:53.21 bitrate=N/A speed=16.8x    frame= 4428 fps=408 q=-0.0 size=N/A time=00:03:04.68 bitrate=N/A speed=  17x    frame= 4715 fps=415 q=-0.0 size=N/A time=00:03:16.65 bitrate=N/A speed=17.3x    frame= 4996 fps=420 q=-0.0 size=N/A time=00:03:28.37 bitrate=N/A speed=17.5x    frame= 5254 fps=424 q=-0.0 size=N/A time=00:03:39.13 bitrate=N/A speed=17.7x    frame= 5530 fps=428 q=-0.0 size=N/A time=00:03:50.64 bitrate=N/A speed=17.9x    frame= 5802 fps=432 q=-0.0 size=N/A time=00:04:01.99 bitrate=N/A speed=  18x    frame= 6079 fps=436 q=-0.0 size=N/A time=00:04:13.54 bitrate=N/A speed=18.2x    frame= 6352 fps=439 q=-0.0 size=N/A time=00:04:24.93 bitrate=N/A speed=18.3x    frame= 6630 fps=443 q=-0.0 size=N/A time=00:04:36.52 bitrate=N/A speed=18.5x    frame= 6914 fps=446 q=-0.0 size=N/A time=00:04:48.37 bitrate=N/A speed=18.6x    frame= 7162 fps=448 q=-0.0 size=N/A time=00:04:58.71 bitrate=N/A speed=18.7x    frame= 7427 fps=449 q=-0.0 size=N/A time=00:05:09.76 bitrate=N/A speed=18.7x    frame= 7648 fps=449 q=-0.0 size=N/A time=00:05:18.98 bitrate=N/A speed=18.7x    frame= 7910 fps=451 q=-0.0 size=N/A time=00:05:29.91 bitrate=N/A speed=18.8x    frame= 8170 fps=452 q=-0.0 size=N/A time=00:05:40.75 bitrate=N/A speed=18.9x    frame= 8435 fps=454 q=-0.0 size=N/A time=00:05:51.80 bitrate=N/A speed=18.9x    frame= 8698 fps=456 q=-0.0 size=N/A time=00:06:02.77 bitrate=N/A speed=  19x    frame= 8966 fps=457 q=-0.0 size=N/A time=00:06:13.95 bitrate=N/A speed=19.1x    frame= 9224 fps=458 q=-0.0 size=N/A time=00:06:24.71 bitrate=N/A speed=19.1x    frame= 9487 fps=460 q=-0.0 size=N/A time=00:06:35.68 bitrate=N/A speed=19.2x    frame= 9758 fps=461 q=-0.0 size=N/A time=00:06:46.98 bitrate=N/A speed=19.2x    frame=10016 fps=462 q=-0.0 size=N/A time=00:06:57.75 bitrate=N/A speed=19.3x    frame=10285 fps=463 q=-0.0 size=N/A time=00:07:08.97 bitrate=N/A speed=19.3x    frame=10539 fps=464 q=-0.0 size=N/A time=00:07:19.56 bitrate=N/A speed=19.4x    frame=10791 fps=465 q=-0.0 size=N/A time=00:07:30.07 bitrate=N/A speed=19.4x    frame=11043 fps=465 q=-0.0 size=N/A time=00:07:40.58 bitrate=N/A speed=19.4x    frame=11275 fps=465 q=-0.0 size=N/A time=00:07:50.26 bitrate=N/A speed=19.4x    frame=11547 fps=466 q=-0.0 size=N/A time=00:08:01.60 bitrate=N/A speed=19.4x    frame=11806 fps=467 q=-0.0 size=N/A time=00:08:12.40 bitrate=N/A speed=19.5x    frame=12078 fps=468 q=-0.0 size=N/A time=00:08:23.75 bitrate=N/A speed=19.5x    frame=12343 fps=469 q=-0.0 size=N/A time=00:08:34.80 bitrate=N/A speed=19.6x    frame=12615 fps=470 q=-0.0 size=N/A time=00:08:46.15 bitrate=N/A speed=19.6x    frame=12884 fps=471 q=-0.0 size=N/A time=00:08:57.37 bitrate=N/A speed=19.7x    frame=13150 fps=472 q=-0.0 size=N/A time=00:09:08.46 bitrate=N/A speed=19.7x    frame=13387 fps=472 q=-0.0 size=N/A time=00:09:18.34 bitrate=N/A speed=19.7x    frame=13645 fps=472 q=-0.0 size=N/A time=00:09:29.11 bitrate=N/A speed=19.7x    frame=13923 fps=473 q=-0.0 size=N/A time=00:09:40.70 bitrate=N/A speed=19.7x    frame=14126 fps=472 q=-0.0 size=N/A time=00:09:49.17 bitrate=N/A speed=19.7x    frame=14383 fps=472 q=-0.0 size=N/A time=00:09:59.89 bitrate=N/A speed=19.7x    frame=14628 fps=473 q=-0.0 size=N/A time=00:10:10.10 bitrate=N/A speed=19.7x    frame=14883 fps=473 q=-0.0 size=N/A time=00:10:20.74 bitrate=N/A speed=19.7x    frame=15100 fps=472 q=-0.0 size=N/A time=00:10:29.79 bitrate=N/A speed=19.7x    frame=15327 fps=472 q=-0.0 size=N/A time=00:10:39.26 bitrate=N/A speed=19.7x    frame=15590 fps=472 q=-0.0 size=N/A time=00:10:50.23 bitrate=N/A speed=19.7x    frame=15851 fps=473 q=-0.0 size=N/A time=00:11:01.11 bitrate=N/A speed=19.7x    frame=16120 fps=473 q=-0.0 size=N/A time=00:11:12.33 bitrate=N/A speed=19.7x    frame=16395 fps=474 q=-0.0 size=N/A time=00:11:23.80 bitrate=N/A speed=19.8x    frame=16647 fps=475 q=-0.0 size=N/A time=00:11:34.31 bitrate=N/A speed=19.8x    frame=16920 fps=475 q=-0.0 size=N/A time=00:11:45.70 bitrate=N/A speed=19.8x    frame=17185 fps=476 q=-0.0 size=N/A time=00:11:56.75 bitrate=N/A speed=19.8x    frame=17458 fps=477 q=-0.0 size=N/A time=00:12:08.14 bitrate=N/A speed=19.9x    frame=17689 fps=476 q=-0.0 size=N/A time=00:12:17.77 bitrate=N/A speed=19.9x    frame=17949 fps=477 q=-0.0 size=N/A time=00:12:28.62 bitrate=N/A speed=19.9x    frame=18201 fps=477 q=-0.0 size=N/A time=00:12:39.13 bitrate=N/A speed=19.9x    frame=18428 fps=476 q=-0.0 size=N/A time=00:12:48.60 bitrate=N/A speed=19.9x    frame=18694 fps=477 q=-0.0 size=N/A time=00:12:59.69 bitrate=N/A speed=19.9x    frame=18979 fps=478 q=-0.0 size=N/A time=00:13:11.58 bitrate=N/A speed=19.9x    frame=19251 fps=479 q=-0.0 size=N/A time=00:13:22.92 bitrate=N/A speed=  20x    frame=19532 fps=479 q=-0.0 size=N/A time=00:13:34.64 bitrate=N/A speed=  20x    frame=19799 fps=480 q=-0.0 size=N/A time=00:13:45.78 bitrate=N/A speed=  20x    frame=20079 fps=481 q=-0.0 size=N/A time=00:13:57.46 bitrate=N/A speed=  20x    frame=20359 fps=481 q=-0.0 size=N/A time=00:14:09.13 bitrate=N/A speed=20.1x    frame=20580 fps=481 q=-0.0 size=N/A time=00:14:18.35 bitrate=N/A speed=  20x    frame=20835 fps=481 q=-0.0 size=N/A time=00:14:28.99 bitrate=N/A speed=20.1x    frame=21119 fps=482 q=-0.0 size=N/A time=00:14:40.83 bitrate=N/A speed=20.1x    frame=21385 fps=482 q=-0.0 size=N/A time=00:14:51.93 bitrate=N/A speed=20.1x    frame=21658 fps=483 q=-0.0 size=N/A time=00:15:03.31 bitrate=N/A speed=20.1x    frame=21934 fps=483 q=-0.0 size=N/A time=00:15:14.83 bitrate=N/A speed=20.2x    frame=22205 fps=484 q=-0.0 size=N/A time=00:15:26.13 bitrate=N/A speed=20.2x    frame=22482 fps=484 q=-0.0 size=N/A time=00:15:37.68 bitrate=N/A speed=20.2x    frame=22751 fps=485 q=-0.0 size=N/A time=00:15:48.90 bitrate=N/A speed=20.2x    frame=23009 fps=485 q=-0.0 size=N/A time=00:15:59.66 bitrate=N/A speed=20.2x    frame=23277 fps=485 q=-0.0 size=N/A time=00:16:10.84 bitrate=N/A speed=20.2x    frame=23555 fps=486 q=-0.0 size=N/A time=00:16:22.43 bitrate=N/A speed=20.3x    frame=23828 fps=486 q=-0.0 size=N/A time=00:16:33.82 bitrate=N/A speed=20.3x    frame=24098 fps=487 q=-0.0 size=N/A time=00:16:45.08 bitrate=N/A speed=20.3x    frame=24354 fps=487 q=-0.0 size=N/A time=00:16:55.76 bitrate=N/A speed=20.3x    frame=24623 fps=487 q=-0.0 size=N/A time=00:17:06.98 bitrate=N/A speed=20.3x    frame=24898 fps=488 q=-0.0 size=N/A time=00:17:18.45 bitrate=N/A speed=20.3x    frame=25173 fps=488 q=-0.0 size=N/A time=00:17:29.92 bitrate=N/A speed=20.4x    frame=25457 fps=489 q=-0.0 size=N/A time=00:17:41.76 bitrate=N/A speed=20.4x    frame=25727 fps=489 q=-0.0 size=N/A time=00:17:53.03 bitrate=N/A speed=20.4x    frame=25996 fps=489 q=-0.0 size=N/A time=00:18:04.24 bitrate=N/A speed=20.4x    frame=26271 fps=490 q=-0.0 size=N/A time=00:18:15.71 bitrate=N/A speed=20.4x    frame=26523 fps=490 q=-0.0 size=N/A time=00:18:26.23 bitrate=N/A speed=20.4x    frame=26793 fps=490 q=-0.0 size=N/A time=00:18:37.49 bitrate=N/A speed=20.4x    frame=27025 fps=490 q=-0.0 size=N/A time=00:18:47.16 bitrate=N/A speed=20.4x    frame=27253 fps=489 q=-0.0 size=N/A time=00:18:56.67 bitrate=N/A speed=20.4x    frame=27489 fps=489 q=-0.0 size=N/A time=00:19:06.52 bitrate=N/A speed=20.4x    frame=27736 fps=489 q=-0.0 size=N/A time=00:19:16.82 bitrate=N/A speed=20.4x    frame=27986 fps=489 q=-0.0 size=N/A time=00:19:27.24 bitrate=N/A speed=20.4x    frame=28239 fps=489 q=-0.0 size=N/A time=00:19:37.80 bitrate=N/A speed=20.4x    frame=28485 fps=489 q=-0.0 size=N/A time=00:19:48.06 bitrate=N/A speed=20.4x    frame=28722 fps=488 q=-0.0 size=N/A time=00:19:57.94 bitrate=N/A speed=20.4x    frame=28924 fps=488 q=-0.0 size=N/A time=00:20:06.37 bitrate=N/A speed=20.3x    frame=29132 fps=487 q=-0.0 size=N/A time=00:20:15.04 bitrate=N/A speed=20.3x    frame=29365 fps=486 q=-0.0 size=N/A time=00:20:24.76 bitrate=N/A speed=20.3x    frame=29566 fps=486 q=-0.0 size=N/A time=00:20:33.14 bitrate=N/A speed=20.3x    frame=29770 fps=485 q=-0.0 size=N/A time=00:20:41.65 bitrate=N/A speed=20.2x    frame=29975 fps=484 q=-0.0 size=N/A time=00:20:50.20 bitrate=N/A speed=20.2x    frame=30185 fps=484 q=-0.0 size=N/A time=00:20:58.96 bitrate=N/A speed=20.2x    frame=30419 fps=483 q=-0.0 size=N/A time=00:21:08.72 bitrate=N/A speed=20.2x    frame=30688 fps=484 q=-0.0 size=N/A time=00:21:19.94 bitrate=N/A speed=20.2x    frame=30955 fps=484 q=-0.0 size=N/A time=00:21:31.08 bitrate=N/A speed=20.2x    frame=31207 fps=484 q=-0.0 size=N/A time=00:21:41.59 bitrate=N/A speed=20.2x    frame=31458 fps=484 q=-0.0 size=N/A time=00:21:52.06 bitrate=N/A speed=20.2x    frame=31711 fps=484 q=-0.0 size=N/A time=00:22:02.61 bitrate=N/A speed=20.2x    frame=31932 fps=483 q=-0.0 size=N/A time=00:22:11.83 bitrate=N/A speed=20.2x    frame=32175 fps=483 q=-0.0 size=N/A time=00:22:21.96 bitrate=N/A speed=20.2x    frame=32445 fps=484 q=-0.0 size=N/A time=00:22:33.22 bitrate=N/A speed=20.2x    frame=32653 fps=483 q=-0.0 size=N/A time=00:22:41.90 bitrate=N/A speed=20.1x    frame=32830 fps=482 q=-0.0 size=N/A time=00:22:49.28 bitrate=N/A speed=20.1x    frame=33037 fps=481 q=-0.0 size=N/A time=00:22:57.91 bitrate=N/A speed=20.1x    frame=33255 fps=481 q=-0.0 size=N/A time=00:23:07.01 bitrate=N/A speed=20.1x    frame=33460 fps=480 q=-0.0 size=N/A time=00:23:15.56 bitrate=N/A speed=  20x    frame=33631 fps=479 q=-0.0 size=N/A time=00:23:22.69 bitrate=N/A speed=  20x    frame=33782 fps=478 q=-0.0 size=N/A time=00:23:28.99 bitrate=N/A speed=19.9x    frame=33926 fps=476 q=-0.0 size=N/A time=00:23:34.99 bitrate=N/A speed=19.9x    frame=34116 fps=476 q=-0.0 size=N/A time=00:23:42.92 bitrate=N/A speed=19.8x    frame=34292 fps=475 q=-0.0 size=N/A time=00:23:50.26 bitrate=N/A speed=19.8x    frame=34432 fps=473 q=-0.0 size=N/A time=00:23:56.10 bitrate=N/A speed=19.7x    frame=34649 fps=473 q=-0.0 size=N/A time=00:24:05.15 bitrate=N/A speed=19.7x    [Parsed_ssim_10 @ 000001af11213b80] SSIM Y:0.994162 (22.337154) U:0.993977 (22.201801) V:0.993585 (21.928227) All:0.994035 (22.243785)
[out#0/null @ 000001af10f95ec0] video:14902KiB audio:271276KiB subtitle:0KiB other streams:0KiB global headers:0KiB muxing overhead: unknown
frame=34682 fps=473 q=-0.0 Lsize=N/A time=00:24:06.52 bitrate=N/A speed=19.7x    
